PathFileType	4	(X/Y/Z)	/Users/itak/Documents/Research/Walk-IL/dataset/trc/00015_00004.trc
DataRate	CameraRate	NumFrames	NumMarkers	Units	OrigDataRate	OrigDataStartFrame	OrigNumFrames
100.000000	100.000000	4	53	mm	100.000000	294	588
Frame#	Time	RPSI			LPSI			L3			STRN			T10			C7			CLAV			RBAK			LBAK			LSHO			LUPA			LAEL			LAOL			LWTS			LWPS			LFRA			LIFD			LHPS			LHTS			RSHO			RUPA			RAEL			RAOL			RWTS			RWPS			RFRA			RIFD			RHTS			RHPS			RBHD			LFHD			RFHD			LBHD			LHIP			RHIP			RASI			LASI			LKNE			LTHI			LANK			LTIP			LTOE			LMT1			LMT5			LHEE			RKNE			RTHI			RANK			RTIP			RTOE			RMT1			RMT5			RHEE			
		X1	Y1	Z1	X2	Y2	Z2	X3	Y3	Z3	X4	Y4	Z4	X5	Y5	Z5	X6	Y6	Z6	X7	Y7	Z7	X8	Y8	Z8	X9	Y9	Z9	X10	Y10	Z10	X11	Y11	Z11	X12	Y12	Z12	X13	Y13	Z13	X14	Y14	Z14	X15	Y15	Z15	X16	Y16	Z16	X17	Y17	Z17	X18	Y18	Z18	X19	Y19	Z19	X20	Y20	Z20	X21	Y21	Z21	X22	Y22	Z22	X23	Y23	Z23	X24	Y24	Z24	X25	Y25	Z25	X26	Y26	Z26	X27	Y27	Z27	X28	Y28	Z28	X29	Y29	Z29	X30	Y30	Z30	X31	Y31	Z31	X32	Y32	Z32	X33	Y33	Z33	X34	Y34	Z34	X35	Y35	Z35	X36	Y36	Z36	X37	Y37	Z37	X38	Y38	Z38	X39	Y39	Z39	X40	Y40	Z40	X41	Y41	Z41	X42	Y42	Z42	X43	Y43	Z43	X44	Y44	Z44	X45	Y45	Z45	X46	Y46	Z46	X47	Y47	Z47	X48	Y48	Z48	X49	Y49	Z49	X50	Y50	Z50	X51	Y51	Z51	X52	Y52	Z52	X53	Y53	Z53	

295	2.94	201.3552093505859	1043.784057617188	-160.9278869628906	178.5762329101562	1034.8857421875	-321.7940063476562	190.3457794189453	1105.27099609375	-246.3563842773438	430.6322937011719	1283.564819335938	-284.9632873535156	189.0581359863281	1248.670532226562	-237.1102294921875	240.4249114990234	1513.362426757812	-263.8832702636719	395.2980041503906	1412.361694335938	-286.8008422851562	202.7734680175781	1380.964111328125	-169.2499694824219	205.4341278076172	1470.355590820312	-355.5149536132812	293.5701904296875	1469.337280273438	-447.9439086914062	238.8758087158203	1346.321411132812	-512.7601318359375	210.3089447021484	1131.085693359375	-533.0131225585938	175.4582061767578	1123.937744140625	-432.9876098632812	288.2973022460938	872.4459228515625	-491.8943481445312	202.8600006103516	863.8746337890625	-515.2171630859375	211.5082702636719	1014.08935546875	-538.743408203125	305.7735290527344	686.4391479492188	-480.4241638183594	228.8909149169922	772.5808715820312	-521.0921020507812	299.3209228515625	778.1596069335938	-509.8253173828125	354.1383972167969	1499.224487304688	-107.7416458129883	363.0173645019531	1426.571044921875	-33.5380973815918	383.5265197753906	1153.560546875	-5.617749214172363	346.576904296875	1122.772827148438	-94.49079132080078	557.5872802734375	947.8330078125	-117.3979721069336	533.0159301757812	912.0059204101562	-36.34237289428711	421.7164916992188	1081.995483398438	-3.999306440353394	630.19091796875	779.97412109375	-162.0742340087891	626.4232788085938	856.544921875	-132.2704925537109	599.4326782226562	832.5667724609375	-66.30696868896484	293.2409973144531	1683.087768554688	-204.2599945068359	463.5749206542969	1712.743774414062	-326.9600219726562	463.9111328125	1713.149047851562	-227.9625244140625	283.5564880371094	1685.816040039062	-348.5938415527344	260.8275146484375	934.7781982421875	-441.4356689453125	319.1411743164062	932.2625122070312	-71.95587921142578	415.5754699707031	957.3801879882812	-156.4732208251953	381.9615783691406	976.9862670898438	-388.55908203125	454.2527160644531	532.7565307617188	-418.167236328125	375.0189819335938	645.0027465820312	-449.1339721679688	534.488037109375	40.63962173461914	-442.6585083007812	460.0265808105469	285.5982055664062	-445.51806640625	739.7652587890625	116.6835708618164	-377.8138427734375	681.4412231445312	103.7122268676758	-360.6611022949219	653.7383422851562	78.44429016113281	-460.0886535644531	466.5096740722656	25.65489768981934	-389.6542053222656	286.3419799804688	493.1015014648438	-113.8993377685547	325.6838073730469	763.7718505859375	-75.32556915283203	40.88460159301758	52.44355773925781	-145.0690307617188	233.5242767333984	372.365234375	-115.3526306152344	268.7897033691406	41.64603424072266	-195.4324035644531	204.6630401611328	46.86868286132812	-222.7958831787109	189.9503021240234	36.78157806396484	-126.3833541870117	-17.37922477722168	65.30329132080078	-186.5452117919922	
296	2.95	193.7726287841797	1044.481689453125	-158.4934539794922	170.7432098388672	1035.765014648438	-319.3222351074219	182.6891479492188	1106.188598632812	-243.9073791503906	423.3136291503906	1284.16845703125	-282.7063903808594	181.6320343017578	1249.659057617188	-234.6767120361328	233.5197601318359	1514.2392578125	-261.4247131347656	388.2088317871094	1413.0205078125	-284.4773864746094	195.7149200439453	1381.927612304688	-166.8190002441406	198.36572265625	1471.363647460938	-353.0311889648438	286.4269104003906	1470.259521484375	-445.5435180664062	231.7791137695312	1347.28466796875	-510.35791015625	203.8311920166016	1131.850341796875	-530.8659057617188	169.0776672363281	1124.372802734375	-430.7954406738281	284.3616333007812	874.0157470703125	-490.0648193359375	198.97412109375	864.5743408203125	-513.2479248046875	206.018310546875	1014.875732421875	-536.685791015625	303.7522583007812	688.045654296875	-478.8713989257812	225.957763671875	773.57421875	-519.2919311523438	296.3547668457031	779.9000854492188	-508.1626586914062	347.3346252441406	1499.90673828125	-105.3949737548828	356.0188598632812	1427.291625976562	-31.16002655029297	375.2978515625	1154.319702148438	-2.673178911209106	338.0885620117188	1123.55712890625	-91.45162963867188	547.8063354492188	947.154541015625	-114.1778106689453	523.1624755859375	911.73681640625	-32.95832443237305	413.0727844238281	1082.56591796875	-0.9165593385696411	619.1509399414062	778.658935546875	-158.5188140869141	616.0775756835938	855.3755493164062	-128.8890533447266	588.9650268554688	831.7462768554688	-62.85093307495117	287.0696411132812	1683.953735351562	-201.7314300537109	457.2999572753906	1713.00341796875	-324.6918029785156	457.7764892578125	1713.348876953125	-225.6723327636719	277.1216430664062	1686.792602539062	-346.0101013183594	252.5806579589844	935.5941772460938	-439.3089904785156	311.7479248046875	932.8489990234375	-69.94804382324219	407.9892883300781	958.0040893554688	-154.5334320068359	373.8208923339844	977.640625	-386.5101623535156	447.3987731933594	533.6320190429688	-416.1573181152344	367.0977478027344	645.5732421875	-447.73388671875	525.652099609375	41.68095779418945	-440.5910949707031	452.2842712402344	286.5670776367188	-443.6289672851562	731.7137451171875	117.3608932495117	-378.2694396972656	673.609130859375	104.4150772094727	-360.3578491210938	644.577880859375	79.55946350097656	-459.4700622558594	458.2528686523438	26.59330368041992	-386.9380187988281	281.8123474121094	493.5531921386719	-113.2712173461914	319.3767395019531	764.31103515625	-73.61112213134766	40.49837875366211	51.10105133056641	-145.4904327392578	229.9683685302734	372.42919921875	-115.0733489990234	268.7360229492188	41.6171989440918	-195.4634552001953	204.5539855957031	46.56414413452148	-222.9997863769531	189.7990875244141	36.83532333374023	-126.5466003417969	-17.84372329711914	63.22199249267578	-187.0505828857422	
297	2.96	186.4210815429688	1045.246948242188	-156.1112823486328	163.0330505371094	1036.756713867188	-316.9039306640625	175.2023315429688	1107.180053710938	-241.4971160888672	416.0617065429688	1284.955322265625	-280.5472717285156	174.2518768310547	1250.78857421875	-232.38720703125	226.6515960693359	1515.271728515625	-259.0874328613281	381.160400390625	1413.856567382812	-282.2389221191406	188.6962890625	1383.009399414062	-164.5372009277344	191.3494720458984	1472.513305664062	-350.6901550292969	279.3829650878906	1471.35888671875	-443.2556762695312	224.8191528320312	1348.42236328125	-508.1190490722656	197.4956665039062	1132.788818359375	-528.8465576171875	162.8295440673828	1125.013671875	-428.7581481933594	280.5674133300781	875.7943725585938	-488.2512512207031	195.2621765136719	865.4677124023438	-511.3557434082031	200.7051239013672	1015.844970703125	-534.7301635742188	301.8843994140625	689.868896484375	-477.2118530273438	223.1995239257812	774.7633056640625	-517.4956665039062	293.5440063476562	781.859375	-506.4529113769531	340.4996643066406	1500.7294921875	-103.1386566162109	348.973388671875	1428.145874023438	-28.87470436096191	366.976318359375	1155.229370117188	0.1835531443357468	329.5404663085938	1124.503540039062	-88.51547241210938	537.8071899414062	946.450439453125	-110.8679046630859	513.0194091796875	911.5082397460938	-29.47939109802246	404.3041076660156	1083.2744140625	2.124035120010376	607.7488403320312	777.2383422851562	-154.7611541748047	605.4357299804688	854.1195068359375	-125.3440780639648	578.1505126953125	830.8978271484375	-59.22932815551758	280.8961791992188	1684.978149414062	-199.2884979248047	451.0556945800781	1713.429809570312	-322.4763488769531	451.6668395996094	1713.698852539062	-223.4434661865234	270.7091674804688	1687.94140625	-343.5064697265625	244.4856109619141	936.600830078125	-437.283447265625	304.6396179199219	933.5079345703125	-68.06264495849609	400.6084594726562	958.7191162109375	-152.7095336914062	365.8349609375	978.4921264648438	-384.5994873046875	440.9965515136719	534.6461181640625	-414.2816467285156	359.6399536132812	646.434326171875	-446.4732666015625	515.213134765625	42.49667358398438	-438.2063903808594	444.1219482421875	287.5379638671875	-441.6393737792969	722.4697875976562	116.6145706176758	-378.7400207519531	664.585205078125	104.0526809692383	-359.9687805175781	633.9522094726562	79.74533843994141	-458.700439453125	448.41943359375	27.77564430236816	-383.7757873535156	277.3533935546875	494.1539611816406	-112.8057250976562	313.2840270996094	764.942626953125	-72.07110595703125	40.14260101318359	49.93234252929688	-145.8752593994141	226.4721374511719	372.679931640625	-114.8853378295898	268.6930847167969	41.60421752929688	-195.4822082519531	204.4677734375	46.30558013916016	-223.19091796875	189.6701049804688	36.87958145141602	-126.7077789306641	-18.22648429870605	61.37028884887695	-187.5114898681641	
298	2.97	179.2949829101562	1046.085571289062	-153.7805786132812	155.4457244873047	1037.855224609375	-314.5240173339844	167.8598327636719	1108.2421875	-239.1200256347656	408.8800659179688	1285.912353515625	-278.4811401367188	166.9130249023438	1252.0478515625	-230.2236785888672	219.8301086425781	1516.448120117188	-256.8655395507812	374.1551513671875	1414.857421875	-280.0827941894531	181.7138671875	1384.19580078125	-162.391357421875	184.3871612548828	1473.786743164062	-348.4859619140625	272.4325561523438	1472.613647460938	-441.0750427246094	217.9904022216797	1349.708374023438	-506.0372924804688	191.31982421875	1133.878540039062	-526.958251953125	156.701416015625	1125.836059570312	-426.8856811523438	276.9078063964844	877.7572631835938	-486.4418029785156	191.7233123779297	866.5314331054688	-509.5499267578125	195.5754089355469	1016.973388671875	-532.883056640625	300.1671752929688	691.908935546875	-475.44140625	220.6119842529297	776.126953125	-515.7125854492188	290.8844604492188	784.0145874023438	-504.684814453125	333.6387023925781	1501.68115234375	-100.9664535522461	341.8823852539062	1429.11962890625	-26.67805480957031	358.5626220703125	1156.27587890625	2.940668106079102	320.9384765625	1125.599487304688	-85.68833160400391	527.60595703125	945.7191772460938	-107.471565246582	502.5933837890625	911.3161010742188	-25.91485595703125	395.4052124023438	1084.1083984375	5.108897686004639	596.0103759765625	775.7198486328125	-150.8004302978516	594.5008544921875	852.77685546875	-121.6391448974609	567.0021362304688	830.0267333984375	-55.4450569152832	274.7198791503906	1686.1474609375	-196.9307403564453	444.8366394042969	1714.017456054688	-320.3201904296875	445.5788269042969	1714.196899414062	-221.28369140625	264.3180847167969	1689.240966796875	-341.0893859863281	236.543701171875	937.8075561523438	-435.3533020019531	297.7999267578125	934.2405395507812	-66.29683685302734	393.422119140625	959.5239868164062	-151.0101165771484	358.0018615722656	979.543212890625	-382.8341064453125	434.9586791992188	535.7996215820312	-412.5902404785156	352.6364135742188	647.6039428710938	-445.3175964355469	503.2431945800781	43.07863235473633	-435.533203125	435.4981384277344	288.4986877441406	-439.5663757324219	711.9501342773438	114.7030487060547	-379.061279296875	654.2835083007812	102.812873840332	-359.3906555175781	621.9129638671875	79.13743591308594	-457.6997680664062	437.0447082519531	29.09390640258789	-380.2585754394531	272.9071044921875	494.9001159667969	-112.4509963989258	307.3639221191406	765.6660766601562	-70.68576049804688	39.81393432617188	48.91050720214844	-146.2125396728516	222.9831237792969	373.1056518554688	-114.7530899047852	268.6570434570312	41.61142730712891	-195.4898376464844	204.3946990966797	46.09042358398438	-223.3611450195312	189.5614166259766	36.91675567626953	-126.8562469482422	-18.54009819030762	59.72067642211914	-187.9162445068359	
